<svg xmlns="http://www.w3.org/2000/svg" width="500" height="500" viewBox="0 0 500 500" version="1.1"><path d="M 219.500 153.078 C 213.018 156.317, 193.320 163.593, 180.575 167.456 C 174.064 169.430, 168.346 171.286, 167.869 171.581 C 166.871 172.198, 166.708 177.076, 167.607 179.418 C 168.010 180.467, 169.464 181, 171.925 181 C 177.738 181, 185.692 183.791, 189.561 187.188 C 196.743 193.494, 196.500 191.204, 196.500 252.500 C 196.500 311.973, 196.572 311.109, 191.065 317.305 C 187.850 320.922, 184.070 322.671, 175.677 324.427 C 171.943 325.209, 168.238 326.387, 167.444 327.046 C 165.647 328.538, 165.570 333.030, 167.301 335.397 C 168.960 337.666, 170.643 337.704, 202 336.192 C 220.254 335.312, 231.620 335.248, 242 335.966 C 264.838 337.548, 270.633 337.367, 273 335 C 277.118 330.882, 274.316 325, 268.237 325 C 264.053 325, 251.846 322.381, 247.428 320.535 C 242.693 318.556, 240.381 315.647, 238.263 309 C 236.724 304.172, 236.531 299.531, 236.684 271 C 236.779 253.125, 237.158 233.016, 237.526 226.313 C 238.166 214.648, 238.350 213.859, 241.847 207.875 C 246.895 199.237, 256.089 189.582, 261.224 187.527 C 267.669 184.948, 271.177 186.089, 276.238 192.409 C 281.934 199.522, 286 202.198, 291.988 202.773 C 304.397 203.965, 316.048 190.577, 315.972 175.212 C 315.920 164.768, 309.988 157.016, 298.964 152.987 C 290.038 149.724, 279.238 150.848, 268.185 156.188 C 261.168 159.579, 249.352 172.016, 243.658 182.006 L 238.816 190.500 239.345 173.592 C 239.874 156.685, 239.874 156.685, 236.831 153.842 C 234.286 151.465, 232.947 151.007, 228.644 151.040 C 225.574 151.064, 221.887 151.886, 219.500 153.078" stroke="none" fill="#f1f1f1" fill-rule="evenodd"/></svg>