<svg xmlns="http://www.w3.org/2000/svg" width="47" height="34" viewBox="0 0 47 34" fill="none">
  <path d="M1.08457 2.88785C0.865024 3.05535 0.822832 3.36911 0.99033 3.58865L3.71986 7.16631C3.88736 7.38585 4.20112 7.42805 4.42066 7.26055C4.6402 7.09305 4.6824 6.77929 4.5149 6.55975L2.08865 3.37961L5.26879 0.953356C5.48833 0.785858 5.53052 0.472099 5.36303 0.252556C5.19553 0.0330134 4.88177 -0.00917784 4.66223 0.15832L1.08457 2.88785ZM1.32121 3.78091C1.65295 3.82552 1.98277 3.87246 2.31068 3.92168L2.45913 2.93276C2.12617 2.88278 1.79129 2.83512 1.45448 2.78983L1.32121 3.78091ZM4.26704 4.24618C4.92302 4.36543 5.57101 4.49384 6.21105 4.63099L6.42058 3.65319C5.77037 3.51386 5.11215 3.38342 4.4459 3.2623L4.26704 4.24618ZM8.14549 5.07771C8.79418 5.23843 9.4343 5.40814 10.0659 5.58636L10.3375 4.62394C9.6956 4.44282 9.04512 4.27037 8.38598 4.10706L8.14549 5.07771ZM11.9676 6.15643C12.6039 6.35848 13.231 6.56914 13.849 6.7879L14.1827 5.84521C13.5545 5.62284 12.917 5.4087 12.2703 5.20334L11.9676 6.15643ZM15.7082 7.48057C16.3296 7.72381 16.9412 7.97516 17.5432 8.23406L17.9383 7.31541C17.3263 7.0522 16.7044 6.79665 16.0727 6.54937L15.7082 7.48057ZM19.3523 9.04782C19.9563 9.33168 20.55 9.62301 21.1333 9.92115L21.5884 9.03071C20.9953 8.72758 20.3917 8.43138 19.7776 8.14277L19.3523 9.04782ZM22.8845 10.8532C23.4688 11.1767 24.042 11.5069 24.604 11.843L25.1172 10.9847C24.5457 10.643 23.963 10.3073 23.369 9.97836L22.8845 10.8532ZM26.2899 12.8893C26.852 13.2512 27.4021 13.6187 27.9402 13.991L28.5091 13.1686C27.962 12.7901 27.4027 12.4165 26.8312 12.0485L26.2899 12.8893ZM29.5532 15.1468C30.0908 15.5456 30.6154 15.9487 31.127 16.3552L31.7491 15.5722C31.2289 15.159 30.6956 14.7491 30.1491 14.3437L29.5532 15.1468ZM32.6595 17.6146C33.1702 18.0487 33.6666 18.4854 34.1487 18.9235L34.8213 18.1835C34.3311 17.738 33.8264 17.294 33.3072 16.8527L32.6595 17.6146ZM35.5919 20.28C36.0752 20.7498 36.5424 21.2199 36.9934 21.6891L37.7143 20.9961C37.2555 20.5188 36.7804 20.0406 36.2889 19.5629L35.5919 20.28ZM38.3444 23.1439C38.7951 23.6464 39.227 24.1462 39.6404 24.6414L40.4081 24.0006C39.9872 23.4963 39.5475 22.9876 39.0889 22.4763L38.3444 23.1439ZM40.8827 26.1867C41.2997 26.7258 41.6938 27.257 42.0649 27.7781L42.8794 27.1978C42.5006 26.6661 42.0987 26.1243 41.6736 25.5748L40.8827 26.1867ZM43.1788 29.4137C43.554 29.9915 43.8983 30.5519 44.212 31.091L45.0763 30.5882C44.7542 30.0344 44.4013 29.4602 44.0175 28.8691L43.1788 29.4137ZM45.1541 32.8238C45.3074 33.1283 45.4488 33.4227 45.5782 33.706L46.4877 33.2904C46.3528 32.995 46.206 32.6893 46.0473 32.3741L45.1541 32.8238Z" fill="white"/>
</svg>